<svg width="19" height="23" viewBox="0 0 19 23" fill="none" xmlns="http://www.w3.org/2000/svg">
<path d="M9.77516e-06 1.40802C9.77516e-06 1.00269 0.138676 0.672024 0.41601 0.416023C0.714677 0.13869 1.08801 2.28882e-05 1.53601 2.28882e-05H10.88C12.288 2.28882e-05 13.536 0.29869 14.624 0.896023C15.712 1.47202 16.5547 2.29336 17.152 3.36002C17.7493 4.40536 18.048 5.61069 18.048 6.97602C18.048 8.38402 17.7493 9.62136 17.152 10.688C16.576 11.7547 15.744 12.576 14.656 13.152C13.568 13.728 12.3093 14.016 10.88 14.016H3.00801V20.192C3.00801 21.0027 2.75201 21.6214 2.24001 22.048C1.72801 22.4747 0.981343 22.688 9.77516e-06 22.688V1.40802ZM10.88 11.36C12.16 11.36 13.1733 10.976 13.92 10.208C14.6667 9.41869 15.04 8.34136 15.04 6.97602C15.04 5.65336 14.656 4.60802 13.888 3.84002C13.1413 3.05069 12.1387 2.65602 10.88 2.65602H3.00801V11.36H10.88Z" fill="#FFF500"/>
</svg>
